<svg aria-hidden="true" style="position: absolute; width: 0; height: 0; overflow: hidden;" version="1.1" xmlns="http://www.w3.org/2000/svg" xmlns:xlink="http://www.w3.org/1999/xlink">
<defs>
<symbol id="icon-logo-1" viewBox="0 0 68 32">
<path d="M0 0h68.431v31.614h-68.431v-31.614z"></path>
</symbol>
<symbol id="icon-linkedin" viewBox="0 0 32 32">
<path d="M16 0c-8.835 0-16 7.165-16 16s7.165 16 16 16c8.835 0 16-7.165 16-16s-7.165-16-16-16zM11.351 24.188h-3.897v-11.723h3.897v11.723zM9.402 10.863h-0.025c-1.308 0-2.153-0.9-2.153-2.025 0-1.15 0.872-2.026 2.205-2.026s2.153 0.875 2.179 2.026c0 1.125-0.846 2.025-2.205 2.025zM25.401 24.188h-3.896v-6.272c0-1.576-0.564-2.651-1.974-2.651-1.076 0-1.718 0.725-1.999 1.425-0.103 0.25-0.128 0.601-0.128 0.951v6.547h-3.896c0 0 0.051-10.624 0-11.723h3.896v1.66c0.518-0.799 1.444-1.935 3.512-1.935 2.564 0 4.486 1.675 4.486 5.276v6.722z"></path>
</symbol>
<symbol id="icon-instagram" viewBox="0 0 32 32">
<path d="M19.063 16c0 1.691-1.371 3.063-3.063 3.063s-3.063-1.371-3.063-3.063c0-1.691 1.371-3.063 3.063-3.063s3.063 1.371 3.063 3.063z"></path>
<path d="M23.162 10.582c-0.147-0.399-0.382-0.76-0.687-1.056-0.296-0.305-0.657-0.54-1.056-0.687-0.324-0.126-0.81-0.275-1.706-0.316-0.969-0.044-1.26-0.054-3.713-0.054s-2.744 0.009-3.713 0.053c-0.896 0.041-1.382 0.191-1.706 0.316-0.399 0.147-0.76 0.382-1.056 0.687-0.305 0.296-0.54 0.657-0.688 1.056-0.126 0.324-0.275 0.81-0.316 1.706-0.044 0.969-0.054 1.259-0.054 3.713s0.010 2.744 0.054 3.713c0.041 0.896 0.19 1.382 0.316 1.706 0.147 0.399 0.382 0.76 0.687 1.056 0.296 0.305 0.657 0.54 1.056 0.687 0.324 0.126 0.81 0.276 1.706 0.316 0.969 0.044 1.259 0.053 3.712 0.053s2.744-0.009 3.713-0.053c0.896-0.041 1.382-0.19 1.706-0.316 0.801-0.309 1.435-0.942 1.744-1.744 0.126-0.324 0.275-0.81 0.316-1.706 0.044-0.969 0.053-1.26 0.053-3.713s-0.009-2.744-0.053-3.713c-0.041-0.896-0.19-1.382-0.316-1.706zM16 20.718c-2.606 0-4.718-2.112-4.718-4.718s2.112-4.718 4.718-4.718c2.606 0 4.718 2.112 4.718 4.718s-2.112 4.718-4.718 4.718zM20.904 12.198c-0.609 0-1.102-0.494-1.102-1.103s0.494-1.103 1.102-1.103c0.609 0 1.103 0.494 1.103 1.103s-0.494 1.103-1.103 1.103z"></path>
<path d="M16 0c-8.835 0-16 7.165-16 16s7.165 16 16 16c8.835 0 16-7.165 16-16s-7.165-16-16-16zM25.132 19.788c-0.044 0.978-0.2 1.646-0.427 2.23-0.477 1.234-1.453 2.21-2.687 2.687-0.584 0.227-1.252 0.382-2.23 0.427-0.98 0.045-1.293 0.055-3.788 0.055s-2.808-0.011-3.788-0.055c-0.978-0.045-1.646-0.2-2.23-0.427-0.613-0.231-1.168-0.592-1.627-1.060-0.467-0.459-0.829-1.014-1.060-1.627-0.227-0.584-0.383-1.252-0.427-2.23-0.045-0.98-0.056-1.293-0.056-3.788s0.011-2.808 0.055-3.788c0.044-0.978 0.2-1.646 0.427-2.23 0.231-0.613 0.593-1.168 1.060-1.627 0.459-0.468 1.014-0.829 1.627-1.060 0.584-0.227 1.252-0.382 2.23-0.427 0.98-0.045 1.293-0.055 3.788-0.055s2.808 0.011 3.788 0.056c0.978 0.044 1.646 0.2 2.23 0.427 0.613 0.231 1.169 0.593 1.628 1.060 0.467 0.459 0.829 1.014 1.059 1.627 0.227 0.584 0.383 1.252 0.427 2.23 0.045 0.98 0.055 1.293 0.055 3.788s-0.011 2.808-0.055 3.788z"></path>
</symbol>
<symbol id="icon-facebook" viewBox="0 0 32 32">
<path d="M32 16c0-8.838-7.163-16-16-16s-16 7.162-16 16c0 8.837 7.162 16 16 16 0.094 0 0.188 0 0.281-0.006v-12.45h-3.437v-4.006h3.437v-2.95c0-3.419 2.088-5.281 5.138-5.281 1.463 0 2.719 0.106 3.081 0.156v3.575h-2.1c-1.656 0-1.981 0.787-1.981 1.944v2.55h3.969l-0.519 4.006h-3.45v11.844c6.688-1.919 11.581-8.075 11.581-15.381z"></path>
</symbol>
<symbol id="icon-map" viewBox="0 0 23 32">
<path d="M11.733 0c-6.39 0-11.589 5.199-11.589 11.589 0 7.93 10.371 19.573 10.813 20.065 0.415 0.462 1.139 0.461 1.553 0 0.442-0.492 10.813-12.134 10.813-20.065-0-6.39-5.199-11.589-11.589-11.589zM11.733 17.42c-3.215 0-5.831-2.616-5.831-5.831s2.616-5.831 5.831-5.831c3.215 0 5.831 2.616 5.831 5.831s-2.616 5.831-5.831 5.831z"></path>
</symbol>
<symbol id="icon-calendar" viewBox="0 0 32 32">
<path d="M28.25 2.5h-1.5v-2.5h-2.5v2.5h-16.5v-2.5h-2.5v2.5h-1.5c-2.068 0-3.75 1.682-3.75 3.75v22c0 2.068 1.682 3.75 3.75 3.75h24.5c2.068 0 3.75-1.682 3.75-3.75v-22c0-2.068-1.682-3.75-3.75-3.75zM29.5 28.25c0 0.689-0.561 1.25-1.25 1.25h-24.5c-0.689 0-1.25-0.561-1.25-1.25v-16.5h27v16.5zM29.5 9.25h-27v-3c0-0.689 0.561-1.25 1.25-1.25h1.5v2.5h2.5v-2.5h16.5v2.5h2.5v-2.5h1.5c0.689 0 1.25 0.561 1.25 1.25v3z"></path>
<path d="M7.25 14.375h-2.5v2.5h2.5v-2.5z"></path>
<path d="M12.25 14.375h-2.5v2.5h2.5v-2.5z"></path>
<path d="M17.25 14.375h-2.5v2.5h2.5v-2.5z"></path>
<path d="M22.25 14.375h-2.5v2.5h2.5v-2.5z"></path>
<path d="M27.25 14.375h-2.5v2.5h2.5v-2.5z"></path>
<path d="M7.25 19.375h-2.5v2.5h2.5v-2.5z"></path>
<path d="M12.25 19.375h-2.5v2.5h2.5v-2.5z"></path>
<path d="M17.25 19.375h-2.5v2.5h2.5v-2.5z"></path>
<path d="M22.25 19.375h-2.5v2.5h2.5v-2.5z"></path>
<path d="M7.25 24.375h-2.5v2.5h2.5v-2.5z"></path>
<path d="M12.25 24.375h-2.5v2.5h2.5v-2.5z"></path>
<path d="M17.25 24.375h-2.5v2.5h2.5v-2.5z"></path>
<path d="M22.25 24.375h-2.5v2.5h2.5v-2.5z"></path>
<path d="M27.25 19.375h-2.5v2.5h2.5v-2.5z"></path>
</symbol>
<symbol id="icon-call" viewBox="0 0 32 32">
<path d="M29.432 21.004c-1.959 0-3.883-0.306-5.706-0.909-0.893-0.305-1.991-0.025-2.537 0.535l-3.598 2.716c-4.173-2.227-6.743-4.797-8.94-8.938l2.636-3.504c0.685-0.684 0.931-1.683 0.636-2.621-0.605-1.832-0.912-3.755-0.912-5.715 0-1.416-1.152-2.568-2.568-2.568h-5.877c-1.416 0-2.568 1.152-2.568 2.568 0 16.229 13.203 29.432 29.432 29.432 1.416 0 2.568-1.152 2.568-2.568v-5.86c-0-1.416-1.152-2.568-2.568-2.568z"></path>
</symbol>
<symbol id="icon-add" viewBox="0 0 32 32">
<path fill="#fff" style="fill: var(--color1, #fff)" d="M29.143 13.143h-9.714c-0.316 0-0.572-0.256-0.572-0.571v-9.714c0-1.578-1.279-2.857-2.857-2.857s-2.857 1.279-2.857 2.857v9.714c0 0.316-0.256 0.571-0.571 0.571h-9.714c-1.578 0-2.857 1.279-2.857 2.857s1.279 2.857 2.857 2.857h9.714c0.316 0 0.571 0.256 0.571 0.572v9.714c0 1.578 1.279 2.857 2.857 2.857s2.857-1.279 2.857-2.857v-9.714c0-0.316 0.256-0.572 0.572-0.572h9.714c1.578 0 2.857-1.279 2.857-2.857s-1.279-2.857-2.857-2.857z"></path>
</symbol>
</defs>
</svg>
